<?xml version="1.0" standalone="no"?><svg xmlns="http://www.w3.org/2000/svg" viewBox="0 0 1440 320"><path fill="#196aff" fill-opacity="1" d="M0,128L20,128C40,128,80,128,120,128C160,128,200,128,240,138.7C280,149,320,171,360,176C400,181,440,171,480,154.7C520,139,560,117,600,112C640,107,680,117,720,112C760,107,800,85,840,64C880,43,920,21,960,32C1000,43,1040,85,1080,96C1120,107,1160,85,1200,96C1240,107,1280,149,1320,160C1360,171,1400,149,1420,138.7L1440,128L1440,320L1420,320C1400,320,1360,320,1320,320C1280,320,1240,320,1200,320C1160,320,1120,320,1080,320C1040,320,1000,320,960,320C920,320,880,320,840,320C800,320,760,320,720,320C680,320,640,320,600,320C560,320,520,320,480,320C440,320,400,320,360,320C320,320,280,320,240,320C200,320,160,320,120,320C80,320,40,320,20,320L0,320Z"></path></svg>