<?xml version="1.0" standalone="no"?><svg xmlns="http://www.w3.org/2000/svg" viewBox="0 0 1440 320"><path fill="#0099ff" fill-opacity="1" d="M0,32L24,64C48,96,96,160,144,181.3C192,203,240,181,288,160C336,139,384,117,432,96C480,75,528,53,576,58.7C624,64,672,96,720,138.7C768,181,816,235,864,240C912,245,960,203,1008,160C1056,117,1104,75,1152,69.3C1200,64,1248,96,1296,112C1344,128,1392,128,1416,128L1440,128L1440,320L1416,320C1392,320,1344,320,1296,320C1248,320,1200,320,1152,320C1104,320,1056,320,1008,320C960,320,912,320,864,320C816,320,768,320,720,320C672,320,624,320,576,320C528,320,480,320,432,320C384,320,336,320,288,320C240,320,192,320,144,320C96,320,48,320,24,320L0,320Z"></path></svg>